<mxfile host="app.diagrams.net" modified="2024-05-19T14:11:30.208Z" agent="Mozilla/5.0 (Macintosh; Intel Mac OS X 10.15; rv:126.0) Gecko/20100101 Firefox/126.0" version="24.4.4" etag="Fq0AGM6iqHwDyRcn-LJv" type="github">
  <diagram name="Page-1" id="Bp5Us-cOSl2Sj2bZ9cxQ">
    <mxGraphModel>
      <root>
        <mxCell id="0" />
        <mxCell id="1" parent="0" />
      </root>
    </mxGraphModel>
  </diagram>
</mxfile>
